<?xml version="1.0" standalone="no"?>
<!DOCTYPE svg PUBLIC "-//W3C//DTD SVG 20010904//EN"
 "http://www.w3.org/TR/2001/REC-SVG-20010904/DTD/svg10.dtd">
<svg version="1.0" xmlns="http://www.w3.org/2000/svg"
 width="320.000000pt" height="320.000000pt" viewBox="0 0 320.000000 320.000000"
 preserveAspectRatio="xMidYMid meet">
<metadata>
Created by potrace 1.14, written by Peter Selinger 2001-2017
</metadata>
<g transform="translate(0.000000,320.000000) scale(0.100000,-0.100000)"
fill="#000000" stroke="none">
<path d="M1330 3029 c-91 -16 -157 -52 -230 -129 -80 -83 -125 -167 -146 -274
-15 -73 -15 -93 1 -270 30 -342 62 -443 174 -551 23 -21 41 -43 41 -49 0 -5
-14 -31 -30 -57 -29 -45 -30 -49 -18 -87 7 -23 22 -46 33 -52 23 -13 75 -84
75 -103 1 -38 18 -36 63 8 26 24 47 49 47 55 0 5 13 7 30 3 23 -4 44 1 81 21
43 24 51 25 64 13 8 -8 11 -17 8 -21 -4 -3 -1 -6 5 -6 7 0 12 -7 12 -15 0 -8
7 -15 15 -15 8 0 15 -5 15 -11 0 -5 5 -7 10 -4 6 3 10 13 10 21 0 9 -5 12 -11
8 -12 -7 -29 12 -29 33 0 6 17 22 39 33 21 12 46 36 55 54 9 17 26 47 39 67
12 19 33 54 47 78 17 30 30 41 44 39 14 -2 22 5 28 27 4 17 24 50 43 73 49 57
56 86 39 168 -17 78 -14 91 18 96 34 5 50 48 51 146 2 95 -13 147 -44 155 -16
4 -19 14 -19 72 0 125 -46 238 -132 323 -122 122 -276 176 -428 151z m142 -79
c74 -11 171 -57 176 -83 2 -12 -1 -15 -12 -11 -9 3 -16 2 -16 -4 0 -14 -87
-44 -134 -46 -23 -1 -47 -6 -54 -10 -7 -4 -21 -4 -30 0 -9 4 -26 9 -37 10 -37
4 -52 10 -75 25 -17 11 -21 20 -15 38 9 30 61 79 88 84 36 7 40 7 109 -3z
m200 -132 c-7 -7 -12 -8 -12 -2 0 14 12 26 19 19 2 -3 -1 -11 -7 -17z m-106
-142 c15 5 15 3 -3 -10 -17 -13 -27 -14 -42 -7 -10 6 -21 7 -25 4 -3 -3 -6 -1
-6 5 0 7 5 12 11 12 5 0 7 5 3 11 -3 6 5 4 18 -5 15 -9 33 -14 44 -10z m-207
-318 l22 -36 -36 11 c-36 11 -39 16 -29 55 7 26 11 23 43 -30z m71 -44 c0 -2
-9 -4 -21 -4 -11 0 -18 4 -14 10 5 8 35 3 35 -6z m-110 -18 c0 -11 -19 -15
-25 -6 -3 5 1 10 9 10 9 0 16 -2 16 -4z m110 -224 c0 -4 -15 -14 -32 -21 -18
-8 -41 -18 -50 -22 -10 -5 -18 -4 -18 1 0 5 8 11 18 14 9 3 -14 3 -53 2 -68
-4 -69 -3 -47 15 18 14 40 18 102 18 44 0 80 -3 80 -7z m-63 -78 c-3 -3 -12
-4 -19 -1 -8 3 -5 6 6 6 11 1 17 -2 13 -5z"/>
<path d="M1772 1680 c-20 -19 -27 -30 -17 -30 8 0 29 13 47 30 21 18 27 29 18
29 -8 0 -30 -13 -48 -29z"/>
<path d="M1459 1525 c-20 -13 -55 -29 -78 -35 -23 -6 -39 -15 -36 -20 8 -14
-16 -58 -42 -75 -30 -20 -29 -30 3 -31 19 -2 24 2 19 14 -8 21 67 90 133 122
28 14 51 31 52 38 0 17 -9 15 -51 -13z"/>
<path d="M2094 1383 c-3 -10 -14 -38 -26 -63 -27 -60 -58 -225 -58 -309 0 -42
8 -96 21 -136 16 -53 19 -81 14 -129 -4 -33 -12 -67 -19 -75 -9 -12 -8 -13 7
-8 10 4 25 7 32 7 26 0 68 110 74 192 6 82 -2 97 -13 23 -8 -52 -23 -67 -28
-28 -2 20 -9 28 -23 28 -22 0 -33 37 -36 125 -1 30 -6 58 -11 61 -5 3 0 32 12
65 11 32 30 100 41 149 11 50 22 96 24 103 3 6 2 12 -1 12 -2 0 -7 -8 -10 -17z"/>
<path d="M2400 1355 c-7 -9 -10 -18 -7 -21 3 -3 10 4 17 15 13 25 8 27 -10 6z"/>
<path d="M2359 1303 c-13 -16 -12 -17 4 -4 9 7 17 15 17 17 0 8 -8 3 -21 -13z"/>
<path d="M2766 1285 c13 -54 24 -73 18 -30 -4 22 -11 45 -16 50 -6 6 -7 -1 -2
-20z"/>
<path d="M2241 1252 c-30 -46 -81 -187 -95 -262 -12 -61 13 -8 40 86 14 47 42
114 64 149 46 74 37 99 -9 27z"/>
<path d="M2805 1224 c2 -10 6 -34 9 -53 l6 -33 -18 22 -18 23 4 -39 4 -39 -24
25 c-13 14 -20 21 -15 16 4 -6 6 -24 6 -40 -1 -24 -3 -26 -6 -8 -17 85 -67
-75 -78 -248 -11 -163 -34 -279 -67 -338 -23 -40 -29 -62 -27 -95 5 -57 -8
-147 -33 -238 -13 -52 -17 -82 -11 -94 7 -13 13 -2 27 47 10 35 24 81 31 103
7 22 18 72 25 112 6 39 18 80 25 90 13 16 14 8 15 -69 0 -47 -5 -109 -11 -136
-14 -60 -6 -102 20 -102 15 0 20 10 25 45 4 25 11 45 17 45 20 0 -6 -85 -40
-130 -15 -19 -32 -47 -39 -62 l-12 -28 71 0 c70 0 71 0 65 24 -3 13 12 122 34
242 22 121 42 248 46 284 3 36 10 74 14 85 5 11 26 56 46 100 19 44 36 94 36
110 0 28 -49 181 -86 269 -9 21 -18 55 -21 74 -2 19 -8 39 -14 45 -7 7 -9 4
-6 -9z m-45 -374 c0 -5 -5 -10 -11 -10 -5 0 -7 5 -4 10 3 6 8 10 11 10 2 0 4
-4 4 -10z m15 -249 c3 -5 1 -12 -5 -16 -5 -3 -10 1 -10 9 0 18 6 21 15 7z
m-58 -173 c-3 -8 -6 -5 -6 6 -1 11 2 17 5 13 3 -3 4 -12 1 -19z m3 -48 c0 -16
-4 -30 -10 -30 -11 0 -14 43 -3 53 11 12 13 8 13 -23z"/>
<path d="M2747 1186 c10 -13 19 -20 21 -15 2 5 -3 16 -11 24 -24 23 -30 18
-10 -9z"/>
<path d="M2710 1159 c0 -5 5 -7 10 -4 6 3 10 8 10 11 0 2 -4 4 -10 4 -5 0 -10
-5 -10 -11z"/>
<path d="M1527 974 c-13 -13 -7 -23 11 -18 12 4 10 0 -7 -15 -25 -23 -51 -28
-51 -10 0 5 -4 7 -10 4 -16 -10 -12 -35 5 -35 9 0 27 7 41 16 22 15 24 15 18
0 -4 -11 0 -16 12 -17 11 -1 39 -3 63 -5 33 -3 47 1 57 14 21 27 17 29 -38 28
-47 -1 -53 1 -53 19 0 20 -33 33 -48 19z"/>
<path d="M1206 944 c-9 -23 -8 -26 6 -18 8 5 9 2 5 -10 -5 -13 -2 -17 10 -14
22 4 29 28 8 28 -11 0 -15 5 -11 15 3 8 1 15 -3 15 -5 0 -12 -7 -15 -16z"/>
<path d="M721 888 c0 -10 -8 -18 -16 -18 -19 0 -19 -50 0 -104 7 -21 11 -45 8
-53 -3 -7 1 -35 8 -61 l14 -47 6 110 c3 61 2 115 -2 120 -4 6 -9 24 -12 40 -2
17 -5 22 -6 13z"/>
<path d="M617 854 c-10 -21 -13 -33 -6 -26 7 6 16 12 20 12 11 0 -2 -104 -18
-143 -12 -29 -14 -43 -5 -61 6 -13 8 -34 5 -46 -4 -16 -2 -21 8 -18 9 3 14 26
16 73 2 38 7 73 12 78 9 9 22 -126 20 -205 -1 -27 4 -55 11 -63 15 -18 31 -84
21 -89 -9 -6 -33 15 -60 53 -20 29 -23 42 -18 87 4 42 2 54 -8 54 -8 0 -18 -8
-24 -17 -7 -13 -11 -6 -16 32 -10 80 -11 82 -24 50 -18 -42 -8 -184 19 -270
25 -80 46 -128 101 -238 21 -43 39 -86 39 -97 0 -19 7 -20 131 -20 l131 0 -7
33 c-4 17 -15 38 -26 46 -10 7 -19 21 -19 31 0 9 -3 20 -7 24 -5 4 -8 13 -8
19 0 7 -10 16 -22 22 -27 11 -30 25 -7 25 11 0 14 5 9 18 -28 72 -37 221 -14
248 6 7 8 18 4 24 -3 5 -2 10 2 10 26 0 61 -153 68 -299 5 -83 15 -96 72 -93
17 2 34 -2 38 -8 14 -23 22 -8 12 25 -7 25 -13 32 -22 25 -7 -6 -20 -8 -29 -4
-12 5 -16 20 -15 69 1 34 -4 72 -10 83 -6 11 -11 29 -11 40 0 11 -7 22 -15 26
-9 3 -15 18 -14 38 1 31 1 32 9 8 4 -14 19 -45 33 -69 l26 -45 -2 37 c-1 20
-7 37 -14 37 -6 0 -14 17 -18 39 -4 27 -11 38 -23 37 -12 -1 -19 13 -27 49 -8
35 -14 45 -20 36 -6 -11 -10 -10 -17 8 -6 17 -13 21 -28 16 -11 -4 -20 -2 -20
4 0 6 -9 11 -20 11 -14 0 -20 -7 -20 -22 -1 -22 -1 -22 -12 -3 -15 26 -28 35
-55 35 -15 0 -23 -6 -23 -17 -1 -16 -2 -16 -10 -2 -5 9 -11 54 -14 102 -2 48
-10 98 -19 114 -22 42 -36 76 -39 97 -2 14 -8 9 -21 -20z m213 -457 c0 -24 -3
-28 -10 -17 -13 20 -13 63 0 55 6 -3 10 -21 10 -38z m-200 -42 c7 -8 16 -13
20 -10 4 3 11 -2 14 -11 5 -13 9 -14 21 -4 9 7 17 11 19 9 9 -10 46 -85 46
-93 0 -5 10 -29 21 -54 24 -48 22 -113 -4 -139 -13 -13 -16 -12 -22 8 -4 13
-14 31 -21 40 -22 25 -111 203 -119 237 -7 34 4 42 25 17z m207 -37 c-3 -7 -5
-2 -5 12 0 14 2 19 5 13 2 -7 2 -19 0 -25z m23 -59 c0 -5 -4 -9 -10 -9 -5 0
-10 7 -10 16 0 8 5 12 10 9 6 -3 10 -10 10 -16z m50 -235 c0 -9 -5 -14 -12
-12 -18 6 -21 28 -4 28 9 0 16 -7 16 -16z"/>
<path d="M1251 766 c-6 -25 -10 -57 -10 -73 1 -15 8 3 15 41 16 79 12 100 -5
32z"/>
<path d="M1236 628 c-3 -13 -5 -32 -5 -43 1 -11 5 -2 10 19 10 42 6 62 -5 24z"/>
<path d="M1321 614 c0 -11 3 -14 6 -6 3 7 2 16 -1 19 -3 4 -6 -2 -5 -13z"/>
<path d="M2000 619 c0 -5 5 -7 10 -4 6 3 10 8 10 11 0 2 -4 4 -10 4 -5 0 -10
-5 -10 -11z"/>
<path d="M1325 570 c3 -5 8 -10 11 -10 2 0 4 5 4 10 0 6 -5 10 -11 10 -5 0 -7
-4 -4 -10z"/>
<path d="M1222 510 c-14 -46 -16 -104 -3 -80 9 15 26 120 19 120 -2 0 -9 -18
-16 -40z"/>
<path d="M2022 530 c0 -14 2 -19 5 -12 2 6 2 18 0 25 -3 6 -5 1 -5 -13z"/>
<path d="M2300 450 c-11 -22 -18 -40 -15 -40 2 0 14 18 25 40 11 22 18 40 15
40 -2 0 -14 -18 -25 -40z"/>
<path d="M1137 473 c-10 -16 10 -56 26 -50 6 2 13 9 15 17 3 9 -1 11 -11 7
-11 -4 -17 1 -19 16 -2 15 -6 18 -11 10z"/>
<path d="M1440 444 c0 -7 9 -22 21 -35 16 -19 18 -20 10 -4 -17 34 -31 51 -31
39z"/>
<path d="M1995 411 c-6 -11 9 -23 19 -14 9 9 7 23 -3 23 -6 0 -12 -4 -16 -9z"/>
<path d="M506 354 c-9 -66 -7 -157 3 -172 5 -8 17 -12 26 -10 28 5 30 88 4
166 -11 34 -22 62 -23 62 -2 0 -6 -21 -10 -46z"/>
<path d="M1995 370 c-3 -5 -2 -17 3 -26 8 -14 10 -12 14 10 5 26 -5 35 -17 16z"/>
<path d="M1203 305 c0 -22 2 -30 4 -17 2 12 2 30 0 40 -3 9 -5 -1 -4 -23z"/>
<path d="M1495 310 c3 -5 8 -10 11 -10 2 0 4 5 4 10 0 6 -5 10 -11 10 -5 0 -7
-4 -4 -10z"/>
<path d="M1630 230 c0 -13 11 -13 30 0 12 8 11 10 -7 10 -13 0 -23 -4 -23 -10z"/>
<path d="M1680 219 c0 -6 -4 -7 -10 -4 -5 3 -10 1 -10 -4 0 -12 7 -13 34 -2
18 7 18 8 3 14 -9 3 -17 2 -17 -4z"/>
<path d="M1240 211 c0 -6 5 -13 10 -16 6 -3 10 1 10 9 0 9 -4 16 -10 16 -5 0
-10 -4 -10 -9z"/>
<path d="M1690 174 c0 -4 7 -12 16 -18 8 -6 16 -19 17 -28 4 -22 26 -48 42
-48 7 0 15 -7 19 -15 3 -8 1 -15 -3 -15 -5 0 -12 6 -14 13 -4 8 -6 6 -6 -4 -1
-21 29 -48 54 -48 11 0 34 -3 51 -7 24 -4 31 -2 31 10 0 9 -7 16 -15 16 -9 0
-45 31 -81 69 -58 60 -111 96 -111 75z"/>
<path d="M1245 100 c3 -5 11 -10 16 -10 6 0 7 5 4 10 -3 6 -11 10 -16 10 -6 0
-7 -4 -4 -10z"/>
<path d="M450 89 c0 -5 -15 -16 -32 -24 -18 -7 -44 -25 -57 -39 l-24 -26 117
0 c133 0 134 2 53 64 -51 39 -57 42 -57 25z"/>
<path d="M1180 86 c0 -2 9 -6 20 -9 11 -3 18 -1 14 4 -5 9 -34 13 -34 5z"/>
<path d="M2016 75 c4 -8 12 -15 20 -15 19 0 18 16 -2 24 -22 9 -24 8 -18 -9z"/>
<path d="M1275 58 c6 -17 4 -20 -9 -15 -15 6 -15 4 0 -18 9 -14 21 -25 27 -25
8 0 7 4 0 11 -7 7 -9 25 -6 40 4 19 1 29 -6 29 -8 0 -10 -8 -6 -22z"/>
<path d="M1985 50 c-3 -5 -1 -10 4 -10 6 0 11 5 11 10 0 6 -2 10 -4 10 -3 0
-8 -4 -11 -10z"/>
<path d="M2010 36 c0 -9 5 -16 10 -16 6 0 10 4 10 9 0 6 -4 13 -10 16 -5 3
-10 -1 -10 -9z"/>
<path d="M1230 22 c0 -12 19 -26 26 -19 2 2 -2 10 -11 17 -9 8 -15 8 -15 2z"/>
<path d="M980 10 c0 -5 5 -10 10 -10 6 0 10 5 10 10 0 6 -4 10 -10 10 -5 0
-10 -4 -10 -10z"/>
<path d="M1613 3 c9 -2 23 -2 30 0 6 3 -1 5 -18 5 -16 0 -22 -2 -12 -5z"/>
</g>
</svg>
